<svg width="64" height="64" viewBox="0 0 64 64" xmlns="http://www.w3.org/2000/svg">
  <!-- Rounded square background -->
  <rect width="64" height="64" rx="14" fill="#3a2410"/>
  <!-- Outer hex ring - saffron -->
  <polygon points="32,6 52,17 52,47 32,58 12,47 12,17" fill="#e8952a"/>
  <!-- Inner hex - cream -->
  <polygon points="32,12 46,20 46,44 32,52 18,44 18,20" fill="#fdf8f0"/>
  <!-- Karahi bowl -->
  <path d="M22,40 Q32,47 42,40" fill="none" stroke="#3a2410" stroke-width="3.5" stroke-linecap="round"/>
  <!-- Karahi handles -->
  <path d="M22,40 Q19,36 21,31" fill="none" stroke="#3a2410" stroke-width="3" stroke-linecap="round"/>
  <path d="M42,40 Q45,36 43,31" fill="none" stroke="#3a2410" stroke-width="3" stroke-linecap="round"/>
  <!-- AI bubbles -->
  <circle cx="26" cy="27" r="4" fill="#e8952a"/>
  <circle cx="32" cy="23" r="5" fill="#c97b1a"/>
  <circle cx="38" cy="27" r="4" fill="#e8952a"/>
  <!-- Steam lines -->
  <path d="M26,22 Q24,16 26,12" fill="none" stroke="#e8952a" stroke-width="1.8" stroke-linecap="round"/>
  <path d="M32,18 Q30,11 32,7"  fill="none" stroke="#c97b1a" stroke-width="2"   stroke-linecap="round"/>
  <path d="M38,22 Q40,16 38,12" fill="none" stroke="#e8952a" stroke-width="1.8" stroke-linecap="round"/>
</svg>
